<svg width="32" height="32" viewBox="0 0 32 32" fill="none" xmlns="http://www.w3.org/2000/svg">
<g clip-path="url(#clip0_144_3021)">
<rect width="32" height="32" rx="8" fill="#4D6AD6" style="fill:#4D6AD6;fill:color(display-p3 0.3020 0.4157 0.8392);fill-opacity:1;"/>
<path d="M4.52903 13.588C4.31029 13.588 4.11613 13.631 3.94654 13.717C3.77942 13.8005 3.6381 13.9222 3.52258 14.082C3.40952 14.2417 3.3235 14.4346 3.26452 14.6608C3.20553 14.8869 3.17604 15.1413 3.17604 15.4239C3.17604 15.8048 3.22273 16.1305 3.31613 16.4009C3.41198 16.6688 3.55945 16.874 3.75853 17.0165C3.9576 17.1566 4.21444 17.2267 4.52903 17.2267C4.74777 17.2267 4.96651 17.2021 5.18525 17.1529C5.40645 17.1038 5.64608 17.0337 5.90415 16.9428V17.9013C5.66574 17.9996 5.43103 18.0697 5.2 18.1115C4.96897 18.1557 4.70968 18.1778 4.42212 18.1778C3.86667 18.1778 3.40952 18.0635 3.05069 17.835C2.69432 17.6039 2.43011 17.282 2.25806 16.8691C2.08602 16.4537 2 15.9695 2 15.4165C2 15.0085 2.0553 14.635 2.1659 14.2958C2.2765 13.9566 2.43871 13.6629 2.65253 13.4147C2.86636 13.1664 3.13057 12.9747 3.44516 12.8396C3.75975 12.7044 4.12104 12.6368 4.52903 12.6368C4.79693 12.6368 5.06482 12.6712 5.33272 12.74C5.60307 12.8064 5.86114 12.8986 6.10691 13.0165L5.73825 13.9456C5.53671 13.8497 5.33395 13.7661 5.12995 13.6949C4.92596 13.6236 4.72565 13.588 4.52903 13.588Z" fill="white" style="fill:white;fill-opacity:1;"/>
<path d="M10.2359 16.6073C10.2359 16.9268 10.1585 17.2045 10.0037 17.4405C9.84885 17.6764 9.62273 17.8583 9.32535 17.9861C9.03041 18.1139 8.67158 18.1778 8.24885 18.1778C8.06206 18.1778 7.87896 18.1655 7.69954 18.1409C7.52258 18.1164 7.35177 18.0807 7.1871 18.034C7.02488 17.9849 6.87005 17.9247 6.72258 17.8534V16.7916C6.97819 16.9047 7.24363 17.0067 7.51889 17.0976C7.79416 17.1886 8.06697 17.234 8.33733 17.234C8.52412 17.234 8.67404 17.2095 8.7871 17.1603C8.90261 17.1111 8.98617 17.0436 9.03779 16.9575C9.0894 16.8715 9.11521 16.7732 9.11521 16.6626C9.11521 16.5274 9.06974 16.4119 8.9788 16.3161C8.88786 16.2202 8.76252 16.1305 8.60276 16.0469C8.44547 15.9634 8.26728 15.8737 8.0682 15.7778C7.94286 15.7188 7.80645 15.6476 7.65899 15.564C7.51152 15.478 7.37143 15.3735 7.23871 15.2506C7.10599 15.1277 6.99662 14.979 6.9106 14.8045C6.82704 14.6276 6.78525 14.4162 6.78525 14.1704C6.78525 13.8485 6.85899 13.5732 7.00645 13.3446C7.15392 13.1161 7.36406 12.9416 7.63687 12.8211C7.91214 12.6982 8.23656 12.6368 8.61014 12.6368C8.89032 12.6368 9.15699 12.67 9.41014 12.7363C9.66575 12.8002 9.93241 12.8936 10.2101 13.0165L9.84147 13.905C9.59324 13.8042 9.37081 13.7268 9.17419 13.6727C8.97757 13.6162 8.77727 13.588 8.57327 13.588C8.43072 13.588 8.30906 13.6113 8.20829 13.658C8.10753 13.7022 8.03134 13.7661 7.97972 13.8497C7.92811 13.9308 7.9023 14.0254 7.9023 14.1336C7.9023 14.2614 7.93917 14.3695 8.0129 14.458C8.08909 14.544 8.20215 14.6276 8.35207 14.7087C8.50445 14.7898 8.6937 14.8844 8.91982 14.9926C9.19508 15.1228 9.4298 15.2592 9.62396 15.4018C9.82058 15.5419 9.97174 15.7078 10.0774 15.8995C10.1831 16.0887 10.2359 16.3247 10.2359 16.6073Z" fill="white" style="fill:white;fill-opacity:1;"/>
<path d="M13.259 15.0774H15.3972V17.8718C15.1146 17.9652 14.8209 18.0402 14.5161 18.0967C14.2114 18.1508 13.8661 18.1778 13.4802 18.1778C12.9444 18.1778 12.4897 18.0721 12.1161 17.8608C11.7425 17.6494 11.4587 17.3373 11.2645 16.9244C11.0704 16.5115 10.9733 16.0039 10.9733 15.4018C10.9733 14.8365 11.0814 14.3474 11.2977 13.9345C11.5164 13.5216 11.8347 13.2021 12.2525 12.976C12.6728 12.7499 13.1853 12.6368 13.7899 12.6368C14.075 12.6368 14.3564 12.6675 14.6341 12.729C14.9118 12.7904 15.1637 12.8703 15.3899 12.9686L15.0101 13.8829C14.8455 13.7993 14.6575 13.7293 14.4461 13.6727C14.2347 13.6162 14.0135 13.588 13.7825 13.588C13.4507 13.588 13.1619 13.6641 12.9161 13.8165C12.6728 13.9689 12.4836 14.1827 12.3484 14.458C12.2157 14.7308 12.1493 15.0528 12.1493 15.4239C12.1493 15.7754 12.1972 16.0875 12.2931 16.3603C12.3889 16.6307 12.5401 16.8433 12.7465 16.9981C12.953 17.1505 13.2221 17.2267 13.5539 17.2267C13.7161 17.2267 13.8525 17.2193 13.9631 17.2045C14.0762 17.1873 14.1819 17.1701 14.2802 17.1529V16.0285H13.259V15.0774Z" fill="white" style="fill:white;fill-opacity:1;"/>
<path d="M16.6839 18.1041V12.7142H17.8267V17.1603H20.0129V18.1041H16.6839Z" fill="white" style="fill:white;fill-opacity:1;"/>
<path d="M21.9889 13.9824V18.1041H20.8645V13.9824H21.9889ZM21.4286 12.3677C21.5957 12.3677 21.7395 12.407 21.8599 12.4856C21.9803 12.5618 22.0406 12.7056 22.0406 12.917C22.0406 13.1259 21.9803 13.2709 21.8599 13.352C21.7395 13.4307 21.5957 13.47 21.4286 13.47C21.259 13.47 21.114 13.4307 20.9935 13.352C20.8756 13.2709 20.8166 13.1259 20.8166 12.917C20.8166 12.7056 20.8756 12.5618 20.9935 12.4856C21.114 12.407 21.259 12.3677 21.4286 12.3677Z" fill="white" style="fill:white;fill-opacity:1;"/>
<path d="M24.9088 17.282C25.0316 17.282 25.1508 17.2697 25.2664 17.2451C25.3843 17.2205 25.5011 17.1898 25.6166 17.1529V17.9898C25.4962 18.0439 25.3462 18.0881 25.1668 18.1225C24.9899 18.1594 24.7957 18.1778 24.5843 18.1778C24.3386 18.1778 24.1174 18.1385 23.9207 18.0598C23.7266 17.9787 23.573 17.8399 23.4599 17.6433C23.3493 17.4442 23.294 17.1677 23.294 16.8138V14.8267H22.7558V14.3511L23.3751 13.975L23.6995 13.105H24.4184V13.9824H25.5723V14.8267H24.4184V16.8138C24.4184 16.9711 24.4627 17.089 24.5511 17.1677C24.6421 17.2439 24.7613 17.282 24.9088 17.282Z" fill="white" style="fill:white;fill-opacity:1;"/>
<path d="M28.153 13.905C28.5339 13.905 28.8621 13.9787 29.1373 14.1262C29.4126 14.2712 29.6252 14.4826 29.7751 14.7603C29.925 15.038 30 15.3772 30 15.7778V16.3234H27.3419C27.3542 16.6405 27.4488 16.8899 27.6258 17.0718C27.8052 17.2512 28.0535 17.3409 28.3705 17.3409C28.6335 17.3409 28.8743 17.3139 29.0931 17.2598C29.3118 17.2058 29.5367 17.1247 29.7677 17.0165V17.8866C29.5637 17.9873 29.3499 18.0611 29.1263 18.1078C28.9051 18.1545 28.6359 18.1778 28.3189 18.1778C27.906 18.1778 27.5398 18.1016 27.2203 17.9492C26.9032 17.7969 26.6538 17.5646 26.4719 17.2525C26.2925 16.9403 26.2028 16.5471 26.2028 16.0727C26.2028 15.591 26.2839 15.1904 26.4461 14.8709C26.6108 14.5489 26.8393 14.3081 27.1318 14.1483C27.4243 13.9861 27.7647 13.905 28.153 13.905ZM28.1604 14.705C27.9416 14.705 27.7598 14.775 27.6147 14.9151C27.4722 15.0552 27.3899 15.2752 27.3677 15.575H28.9456C28.9432 15.4079 28.9124 15.2592 28.8535 15.129C28.7969 14.9987 28.7109 14.8955 28.5954 14.8193C28.4823 14.7431 28.3373 14.705 28.1604 14.705Z" fill="white" style="fill:white;fill-opacity:1;"/>
<path d="M4.94364 20.5874C5.10756 20.5874 5.2599 20.5805 5.41071 20.5917C5.4539 20.5952 5.50867 20.643 5.53143 20.685C5.63556 20.8771 5.72465 21.0773 5.82917 21.2693C5.94218 21.4772 6.06637 21.6789 6.18555 21.8833C6.25574 22.0037 6.31938 22.1286 6.39729 22.244C6.5531 22.4746 6.70545 22.7087 6.87978 22.9251C7.17136 23.2868 7.45792 23.6567 7.78536 23.9842C8.16064 24.3594 8.571 24.7015 8.97983 25.0417C9.58227 25.5435 10.2507 25.9481 10.9518 26.2956C11.3317 26.4842 11.7193 26.6604 12.1158 26.8101C12.4529 26.9374 12.8074 27.0203 13.1549 27.1202C13.3813 27.185 13.6073 27.2513 13.8364 27.3049C13.9833 27.3392 14.1357 27.3489 14.2849 27.3743C14.4396 27.4006 14.5935 27.4322 14.7474 27.4619C14.7713 27.4665 14.7944 27.4781 14.8183 27.4796C15.0258 27.4947 15.2333 27.517 15.4412 27.5197C15.8913 27.5259 16.3418 27.5263 16.7919 27.5197C17.0491 27.5163 17.3068 27.5043 17.5625 27.4781C17.7418 27.4596 17.9177 27.4075 18.0959 27.3751C18.2868 27.3404 18.4808 27.3207 18.6698 27.2787C19.1411 27.1738 19.6023 27.0365 20.0598 26.8772C20.4559 26.7391 20.8466 26.5914 21.2226 26.4093C21.5778 26.2369 21.9246 26.0445 22.2655 25.8455C22.5335 25.6889 22.7923 25.5146 23.0469 25.3364C23.2367 25.2037 23.4206 25.0598 23.595 24.9075C23.9162 24.6263 24.2394 24.3459 24.5418 24.0455C24.9155 23.6748 25.2518 23.271 25.5708 22.8499C25.8111 22.5332 26.0205 22.1988 26.2365 21.8679C26.3545 21.6866 26.4494 21.4899 26.5512 21.2986C26.6735 21.0684 26.7923 20.8362 26.9196 20.5917C27.0989 20.5859 27.2859 20.5674 27.4996 20.6087C27.4522 20.7166 27.4175 20.8054 27.375 20.8898C27.2505 21.1401 27.1294 21.3924 26.9944 21.6373C26.8413 21.9146 26.6839 22.1907 26.5119 22.4561C26.3433 22.716 26.1594 22.9671 25.9715 23.214C25.7799 23.4658 25.5862 23.7177 25.3737 23.9518C25.1273 24.2229 24.8658 24.4817 24.5989 24.7332C24.3231 24.9931 24.0404 25.2469 23.7461 25.4856C23.5147 25.6735 23.2598 25.8324 23.0176 26.0071C22.5713 26.3287 22.085 26.5841 21.5983 26.834C21.2442 27.0156 20.8658 27.1526 20.4925 27.2933C20.1431 27.4252 19.7875 27.5413 19.4311 27.6532C19.2649 27.7052 19.0898 27.7299 18.9189 27.7681C18.696 27.8183 18.475 27.8773 18.2505 27.9181C18.0951 27.9467 17.9327 27.9394 17.7777 27.9698C17.4541 28.0338 17.1201 27.9941 16.7984 28.074C16.7575 28.084 16.7124 28.077 16.6692 28.077C16.373 28.077 16.0768 28.084 15.781 28.0751C15.5126 28.067 15.2414 28.062 14.9776 28.018C14.7184 27.9748 14.4592 27.9505 14.1989 27.9239C14.003 27.9039 13.8113 27.8406 13.6177 27.797C13.5405 27.7797 13.4619 27.7673 13.3855 27.7473C13.1294 27.6794 12.8706 27.62 12.6195 27.5371C12.2705 27.4218 11.9261 27.2922 11.5824 27.1618C11.3279 27.065 11.0726 26.9667 10.8265 26.8506C10.5958 26.7414 10.3756 26.6111 10.1539 26.4842C9.71379 26.2323 9.28413 25.9635 8.88225 25.6526C8.65007 25.4733 8.41712 25.2947 8.18725 25.1123C8.10625 25.0479 8.03259 24.9742 7.95815 24.9021C7.7468 24.6981 7.52541 24.5033 7.32871 24.2862C6.95576 23.8742 6.57123 23.4712 6.265 23.003C6.06868 22.7029 5.84961 22.4175 5.66526 22.1109C5.47473 21.7939 5.31043 21.4602 5.14111 21.1309C5.06976 20.9916 5.01307 20.8447 4.9529 20.7001C4.9421 20.6746 4.94711 20.6426 4.94287 20.5871L4.94364 20.5874Z" fill="white" style="fill:white;fill-opacity:1;"/>
<path d="M5.20264 10.4929C5.21189 10.2905 5.31718 10.1655 5.39008 10.0294C5.62805 9.5835 5.88761 9.14922 6.18613 8.74271C6.60576 8.17151 7.04929 7.61805 7.5692 7.13171C7.833 6.88487 8.08563 6.62415 8.36602 6.39736C8.80724 6.04061 9.26389 5.70197 9.74947 5.405C10.2065 5.12538 10.6743 4.86427 11.1657 4.6533C11.6042 4.46508 12.0586 4.31351 12.5071 4.14921C12.6822 4.0848 12.8589 4.02155 13.0386 3.97218C13.2021 3.92744 13.3707 3.9016 13.5373 3.86882C13.7799 3.82099 14.0221 3.76892 14.2662 3.72958C14.4591 3.69873 14.6577 3.69989 14.8482 3.66055C15.1645 3.59537 15.4854 3.63702 15.7993 3.59768C15.9814 3.57493 16.1661 3.52941 16.3424 3.56066C16.6594 3.61658 16.9776 3.58881 17.2935 3.61658C17.6008 3.64358 17.904 3.72303 18.2118 3.74771C18.5955 3.77857 18.9558 3.91163 19.333 3.96948C19.5632 4.00496 19.7881 4.09059 20.0083 4.17312C20.4379 4.33472 20.8672 4.49864 21.2884 4.68184C22.069 5.02124 22.7949 5.45899 23.4787 5.96308C23.8813 6.25967 24.2616 6.58481 24.6253 6.92999C25.0978 7.37893 25.5305 7.86065 25.9343 8.37207C26.2301 8.74657 26.4878 9.14459 26.7358 9.54956C26.8881 9.79833 27.0223 10.0583 27.1596 10.3163C27.1824 10.3591 27.1785 10.4162 27.1909 10.4902C27.0127 10.4902 26.86 10.4953 26.7076 10.4879C26.6374 10.4845 26.5954 10.4351 26.5614 10.3664C26.3455 9.92985 26.094 9.51408 25.8028 9.12261C25.6242 8.88233 25.4642 8.62662 25.2694 8.40061C24.9894 8.07548 24.6913 7.76539 24.39 7.45915C24.1837 7.24934 23.9654 7.04994 23.7406 6.86018C23.4937 6.65191 23.2372 6.45406 22.9761 6.26392C22.7748 6.11736 22.5669 5.97774 22.3498 5.85625C21.9359 5.62368 21.5186 5.39728 21.0944 5.18477C20.5903 4.93253 20.0573 4.74779 19.5181 4.58735C19.2115 4.49633 18.8952 4.4377 18.5824 4.36751C18.3417 4.31351 18.1015 4.25296 17.8577 4.21593C17.6521 4.18469 17.44 4.19703 17.2344 4.16541C16.7284 4.0875 16.2201 4.10408 15.7125 4.11488C15.4098 4.12144 15.1082 4.17042 14.8062 4.20089C14.6241 4.2194 14.4421 4.23676 14.2608 4.26067C14.1598 4.27379 14.0595 4.29616 13.96 4.32007C13.6082 4.4053 13.2534 4.48128 12.9063 4.58272C12.5885 4.67528 12.2769 4.79176 11.9656 4.90592C11.4114 5.10879 10.8842 5.37067 10.3731 5.66456C9.75333 6.02094 9.16439 6.42205 8.62636 6.89412C8.34172 7.14405 8.05323 7.39204 7.79135 7.66511C7.39757 8.07586 7.03232 8.51207 6.69716 8.97412C6.3701 9.42537 6.08084 9.8986 5.81626 10.3877C5.77808 10.4582 5.73141 10.4995 5.6427 10.4949C5.5027 10.4875 5.36192 10.4929 5.20302 10.4929H5.20264Z" fill="white" style="fill:white;fill-opacity:1;"/>
<path d="M3.19427 20.5956H3.55489C3.63704 20.7823 3.71263 20.9593 3.79247 21.1348C3.92823 21.4326 4.05319 21.7365 4.20785 22.0242C4.41188 22.403 4.63442 22.7724 4.86043 23.1392C5.13928 23.5916 5.46634 24.0101 5.80343 24.4209C6.23077 24.9419 6.69436 25.424 7.19999 25.8714C7.57218 26.2008 7.95323 26.5182 8.35781 26.8044C8.84918 27.1523 9.34825 27.4909 9.89785 27.7466C10.299 27.9333 10.6924 28.1377 11.0973 28.3155C11.5181 28.5006 11.9524 28.6549 12.3975 28.7706C12.7238 28.8555 13.0431 28.9627 13.3806 29.0136C13.6648 29.0564 13.9475 29.1239 14.2326 29.1748C14.5658 29.2342 14.9044 29.2238 15.2346 29.2708C15.7934 29.3507 16.3504 29.2963 16.9077 29.3117C17.0388 29.3152 17.1707 29.2766 17.3026 29.2624C17.4361 29.2481 17.5703 29.24 17.7041 29.2296C17.7407 29.2269 17.7782 29.2288 17.8144 29.223C18.0238 29.1898 18.2329 29.1559 18.4415 29.1208C18.5484 29.1027 18.6544 29.078 18.7617 29.0622C19.2592 28.9897 19.7424 28.857 20.2199 28.705C20.8598 28.5014 21.4908 28.2742 22.087 27.9607C22.3882 27.8021 22.6972 27.6564 22.9911 27.4855C23.2923 27.3108 23.5815 27.1156 23.8724 26.9236C24.4366 26.5514 24.9484 26.1125 25.4436 25.655C25.672 25.4441 25.876 25.2065 26.0912 24.9813C26.1336 24.9369 26.1795 24.896 26.2216 24.8513C26.716 24.3229 27.1518 23.7486 27.5429 23.1404C27.8256 22.7007 28.0887 22.2498 28.3066 21.7735C28.42 21.5263 28.5411 21.2822 28.6556 21.0357C28.6988 20.9428 28.7451 20.8486 28.7709 20.7499C28.8083 20.608 28.8978 20.5698 29.0293 20.5852C29.0776 20.591 29.1265 20.5933 29.2002 20.5991C29.1879 20.684 29.1933 20.7669 29.1636 20.8344C28.9804 21.2474 28.7921 21.6578 28.6005 22.067C28.4149 22.4631 28.1839 22.8338 27.9579 23.2079C27.6956 23.6414 27.396 24.0479 27.0859 24.4448C26.6443 25.0102 26.1525 25.5347 25.6156 26.0122C25.2238 26.3605 24.8258 26.7049 24.4054 27.0169C24.0147 27.3069 23.6012 27.5715 23.1781 27.8126C22.6987 28.0856 22.207 28.3429 21.7021 28.5643C21.2775 28.7505 20.844 28.9256 20.3912 29.0429C20.1814 29.0973 19.9769 29.1721 19.7687 29.2319C19.6063 29.2786 19.4424 29.321 19.2769 29.3565C19.0413 29.407 18.8048 29.4544 18.5669 29.4941C18.3929 29.5231 18.2163 29.5346 18.0416 29.5597C17.821 29.5917 17.6011 29.6307 17.3809 29.6642C17.3385 29.6708 17.2949 29.6669 17.2517 29.6681C16.9196 29.6766 16.5872 29.6928 16.2551 29.692C15.8551 29.6912 15.4552 29.6762 15.0552 29.6673C14.8535 29.5589 14.626 29.6426 14.4107 29.5701C14.1897 29.4957 13.9421 29.5034 13.7073 29.4668C13.4932 29.4336 13.2795 29.395 13.0682 29.348C12.9097 29.3125 12.7554 29.2581 12.5984 29.2153C12.4414 29.1725 12.2795 29.1455 12.1271 29.0903C11.7237 28.9449 11.3164 28.8134 10.9184 28.6499C10.496 28.4759 10.0826 28.2866 9.6811 28.0725C9.25145 27.8434 8.83452 27.592 8.42955 27.3189C7.68595 26.8171 6.99481 26.2552 6.37308 25.6091C6.07996 25.3045 5.77527 25.0086 5.50838 24.6816C5.18093 24.2801 4.87547 23.8597 4.58466 23.4308C4.35017 23.0845 4.14267 22.7184 3.9398 22.352C3.67831 21.88 3.46001 21.3863 3.26215 20.8845C3.22976 20.8024 3.22011 20.7113 3.19312 20.5956H3.19427Z" fill="white" style="fill:white;fill-opacity:1;"/>
<path d="M28.9503 10.4759C28.9079 10.4825 28.8724 10.491 28.8369 10.4925C28.6009 10.5018 28.6082 10.4983 28.5157 10.2827C28.4231 10.0664 28.3182 9.855 28.2102 9.64557C28.0964 9.42457 27.9819 9.2028 27.8507 8.99183C27.6617 8.6883 27.4593 8.39287 27.2579 8.09743C27.1206 7.89611 26.9845 7.69246 26.8298 7.50425C26.5776 7.19724 26.3196 6.89448 26.048 6.60483C25.7927 6.33215 25.5281 6.06603 25.2485 5.81842C24.933 5.5388 24.6013 5.27615 24.267 5.01929C24.0012 4.81564 23.7274 4.62049 23.4439 4.4423C23.1616 4.26412 22.8573 4.12103 22.5734 3.94515C22.1993 3.71336 21.7963 3.54327 21.394 3.37357C21.0492 3.22817 20.6936 3.10629 20.3391 2.98557C19.9793 2.86292 19.6137 2.75879 19.2396 2.68551C19.0159 2.64193 18.7979 2.56903 18.5742 2.52815C18.3344 2.48418 18.0914 2.44638 17.8484 2.43443C17.5441 2.41939 17.2452 2.33222 16.9378 2.37079C16.5186 2.27051 16.092 2.31757 15.6712 2.33415C15.4352 2.34341 15.1914 2.33801 14.9604 2.38082C14.6893 2.43134 14.415 2.42864 14.1462 2.47608C13.9206 2.51619 13.6992 2.57829 13.4755 2.62727C13.3104 2.66314 13.1419 2.68551 12.9784 2.72678C12.5873 2.82551 12.195 2.91962 11.8201 3.07505C11.608 3.16299 11.3816 3.21544 11.1691 3.30299C10.8609 3.42988 10.557 3.56757 10.2566 3.71259C9.67458 3.99336 9.11187 4.3131 8.58464 4.6849C8.12066 5.01196 7.67751 5.37064 7.24207 5.7355C6.95204 5.97848 6.68514 6.25078 6.42095 6.5223C6.22965 6.71938 6.05609 6.93421 5.88099 7.14633C5.65845 7.41554 5.43283 7.68282 5.22649 7.96399C5.05061 8.2035 4.89673 8.45959 4.73821 8.71144C4.62173 8.89618 4.50371 9.08131 4.40228 9.27454C4.21368 9.634 4.03434 9.99847 3.85769 10.3641C3.82915 10.4231 3.81025 10.4833 3.73967 10.4867C3.65444 10.4914 3.5611 10.5014 3.48551 10.4721C3.4157 10.4451 3.42225 10.3518 3.45041 10.2904C3.56881 10.032 3.68645 9.77285 3.81912 9.52176C4.0675 9.05277 4.32591 8.58879 4.62636 8.15143C4.857 7.8155 5.10577 7.49191 5.3526 7.16755C5.72749 6.67503 6.15367 6.22725 6.60724 5.80878C7.00719 5.43968 7.42296 5.08562 7.85107 4.74931C8.37521 4.3374 8.93523 3.97447 9.52687 3.66515C9.88054 3.48002 10.2358 3.29605 10.6002 3.13329C11.0029 2.95356 11.4129 2.79003 11.836 2.6616C11.9918 2.61416 12.1418 2.54782 12.298 2.50115C12.4488 2.45641 12.6046 2.42787 12.757 2.38892C12.9548 2.33839 13.1515 2.28363 13.349 2.2331C13.3841 2.22423 13.4227 2.22924 13.4585 2.22269C13.7139 2.17679 13.9692 2.12974 14.2245 2.08307C14.2426 2.0796 14.2608 2.07728 14.2789 2.07574C14.5219 2.05723 14.7645 2.02792 15.0078 2.02329C15.7163 2.00979 16.4248 2.004 17.1337 2.00015C17.3242 1.99899 17.5159 2.00439 17.7053 2.02522C17.89 2.04566 18.0717 2.09348 18.2557 2.1228C18.4894 2.15982 18.7247 2.18836 18.9588 2.22423C19.0656 2.24081 19.1721 2.2628 19.2774 2.28825C19.5358 2.35151 19.7942 2.41553 20.051 2.48457C20.1671 2.51581 20.2809 2.55708 20.3939 2.59834C20.7572 2.73102 21.1248 2.85367 21.4812 3.00293C21.9008 3.1788 22.3212 3.35814 22.7211 3.57297C23.2476 3.85568 23.7551 4.17232 24.2434 4.51982C24.8435 4.94716 25.4028 5.42194 25.9323 5.93181C26.151 6.14201 26.3558 6.36687 26.5591 6.59288C26.8761 6.94501 27.1712 7.31295 27.4496 7.69401C27.676 8.00333 27.8743 8.33309 28.086 8.6532C28.3741 9.08826 28.5924 9.5611 28.8227 10.027C28.8763 10.1358 28.9183 10.2503 28.9588 10.3649C28.9696 10.3953 28.9546 10.4355 28.9507 10.4767L28.9503 10.4759Z" fill="white" style="fill:white;fill-opacity:1;"/>
<path d="M13.0979 25.596C13.0219 25.5474 12.9671 25.5123 12.915 25.4788C13.1912 24.6272 13.4639 23.7872 13.7435 22.9255C13.8268 22.9471 13.8981 22.9656 13.9653 22.983C13.9961 23.1793 13.892 23.3205 13.8453 23.4744C13.7076 23.9287 13.5611 24.38 13.4168 24.8324C13.3474 25.0499 13.2787 25.2678 13.2024 25.483C13.1881 25.5235 13.1403 25.5517 13.0979 25.596Z" fill="white" style="fill:white;fill-opacity:1;"/>
<path d="M19.4433 25.4992C19.4109 25.5189 19.3801 25.5374 19.3496 25.5559C19.2725 25.6029 19.2258 25.5813 19.1984 25.4957C19.1363 25.3009 19.07 25.1077 19.0064 24.9133C18.8706 24.5003 18.7364 24.0864 18.5995 23.6737C18.5358 23.4813 18.4676 23.2904 18.4016 23.0987C18.3761 23.0242 18.4078 22.9837 18.5177 22.9494C18.6049 22.9224 18.6592 22.9517 18.6855 23.0362C18.7838 23.3528 18.8795 23.6707 18.9824 23.9858C19.1332 24.4486 19.2906 24.9091 19.4422 25.3715C19.4545 25.4097 19.4437 25.4556 19.4437 25.4992H19.4433Z" fill="white" style="fill:white;fill-opacity:1;"/>
<path d="M12.8743 22.5833C12.8411 22.6717 12.8133 22.7719 12.7671 22.8626C12.5164 23.3539 12.2599 23.8426 12.0073 24.3332C11.9051 24.5318 11.8083 24.7331 11.7068 24.9376C11.6359 24.9711 11.5529 24.9696 11.5159 24.8971C11.4901 24.8465 11.4947 24.7621 11.519 24.7073C11.6104 24.5025 11.7134 24.3027 11.8152 24.1025C11.9984 23.7419 12.1839 23.3821 12.3683 23.0219C12.4485 22.8653 12.5279 22.7079 12.6097 22.5521C12.6618 22.4526 12.7262 22.4576 12.8743 22.583V22.5833Z" fill="white" style="fill:white;fill-opacity:1;"/>
<path d="M20.7398 21.8671C20.9708 22.1764 21.1984 22.4765 21.4206 22.78C21.6925 23.1514 21.9605 23.5256 22.2293 23.8989C22.2872 23.9795 22.2764 24.0432 22.2 24.0975C22.1086 24.1623 22.0859 24.1596 22.011 24.0578C21.7654 23.7226 21.5228 23.3856 21.2771 23.0508C21.043 22.7314 20.8065 22.4136 20.5705 22.0951C20.4945 21.9925 20.5323 21.8903 20.6596 21.8648C20.6885 21.859 20.7202 21.8667 20.7398 21.8675V21.8671Z" fill="white" style="fill:white;fill-opacity:1;"/>
<path d="M22.2789 7.67215C22.245 7.73348 22.2261 7.77899 22.1979 7.81794C22.0078 8.07905 21.815 8.33823 21.6244 8.59857C21.415 8.88474 21.2075 9.17247 20.9988 9.45903C20.9344 9.54774 20.8704 9.63683 20.8029 9.72322C20.7401 9.80422 20.6753 9.8127 20.5993 9.75601C20.5179 9.69545 20.5191 9.66653 20.5927 9.56239C20.7863 9.2901 20.9749 9.01395 21.1709 8.7432C21.4443 8.36561 21.7224 7.99111 21.9989 7.61546C22.0437 7.55452 22.1065 7.52328 22.1748 7.55876C22.2176 7.58113 22.245 7.63281 22.2789 7.671V7.67215Z" fill="white" style="fill:white;fill-opacity:1;"/>
<path d="M19.5177 22.561C19.5536 22.5379 19.5729 22.5224 19.5941 22.512C19.7055 22.4584 19.7233 22.4623 19.7788 22.5703C19.893 22.7924 20.0037 23.0161 20.1175 23.2387C20.3419 23.6764 20.5679 24.1134 20.7928 24.5511C20.8445 24.6518 20.8938 24.7532 20.9471 24.8605C20.8992 24.8909 20.8711 24.9145 20.8387 24.9287C20.7349 24.975 20.6975 24.9627 20.647 24.8651C20.5633 24.7031 20.4823 24.5403 20.399 24.378C20.2359 24.059 20.0716 23.7408 19.9084 23.4222C19.79 23.1912 19.6708 22.9606 19.5571 22.7276C19.532 22.6767 19.5293 22.615 19.5173 22.5618L19.5177 22.561Z" fill="white" style="fill:white;fill-opacity:1;"/>
<path d="M10.0957 7.68367C10.2025 7.50664 10.2959 7.49816 10.4131 7.65552C10.5666 7.86109 10.7116 8.07283 10.8632 8.27994C11.0287 8.50595 11.2003 8.72772 11.3642 8.95489C11.5096 9.1566 11.65 9.36217 11.7885 9.56851C11.8529 9.66416 11.8425 9.75017 11.7727 9.79144C11.6974 9.83579 11.655 9.81921 11.5798 9.71546C11.247 9.25611 10.9149 8.79637 10.5809 8.33779C10.4204 8.11718 10.2561 7.89927 10.0961 7.68367H10.0957Z" fill="white" style="fill:white;fill-opacity:1;"/>
<path d="M20.9538 6.76453C20.8852 6.9107 20.8273 7.04183 20.7633 7.16949C20.565 7.56482 20.3656 7.95976 20.1639 8.35355C20.0428 8.59036 19.9198 8.82639 19.7914 9.05973C19.7678 9.10216 19.7185 9.15037 19.6749 9.1577C19.5584 9.17698 19.4971 9.08133 19.5488 8.96833C19.6039 8.84761 19.6645 8.72882 19.725 8.6108C19.9649 8.14142 20.2052 7.67281 20.4462 7.20421C20.5045 7.0912 20.5631 6.97858 20.6271 6.86866C20.7205 6.7086 20.7228 6.70976 20.9538 6.76453Z" fill="white" style="fill:white;fill-opacity:1;"/>
<path d="M11.8882 21.9766C11.3513 22.6936 10.843 23.4345 10.2937 24.1515C10.2216 24.116 10.1684 24.0894 10.1021 24.0566C10.1075 24.0212 10.1021 23.9741 10.1213 23.9425C10.1823 23.8437 10.2505 23.7489 10.32 23.6555C10.5375 23.362 10.7566 23.0697 10.9752 22.7773C11.096 22.6157 11.2194 22.4561 11.3386 22.2937C11.4099 22.1965 11.4762 22.0958 11.5426 21.9952C11.6529 21.8282 11.7185 21.8204 11.8882 21.9766Z" fill="white" style="fill:white;fill-opacity:1;"/>
<path d="M14.885 23.2422C14.9294 23.2388 14.9714 23.2318 15.0131 23.2322C15.1581 23.2341 15.1724 23.2576 15.123 23.3942C15.1107 23.4281 15.1022 23.464 15.0979 23.4999C15.0671 23.7598 15.0547 24.0232 15.0023 24.2786C14.9572 24.4976 14.934 24.7194 14.8889 24.9361C14.8442 25.151 14.811 25.3639 14.7952 25.5818C14.7875 25.689 14.7528 25.7943 14.7269 25.9169H14.5163C14.4963 25.7742 14.4932 25.6335 14.5256 25.4865C14.5634 25.3153 14.573 25.1379 14.6023 24.9647C14.6293 24.8046 14.6679 24.6465 14.6984 24.4868C14.72 24.3734 14.7408 24.2593 14.7547 24.1447C14.7732 23.9931 14.7794 23.8404 14.8006 23.6892C14.8206 23.5465 14.8534 23.4058 14.885 23.2414V23.2422Z" fill="white" style="fill:white;fill-opacity:1;"/>
<path d="M13.1804 6.11194C13.2494 6.35029 13.3015 6.54815 13.3647 6.74292C13.443 6.9832 13.534 7.21885 13.6131 7.45875C13.7284 7.80856 13.8376 8.15992 13.9494 8.51051C13.9872 8.62891 13.9722 8.68291 13.8931 8.70952C13.8032 8.73999 13.7369 8.70605 13.7007 8.59613C13.5896 8.25827 13.4866 7.91771 13.3744 7.58024C13.2266 7.13516 13.0735 6.69201 12.922 6.24808C12.9023 6.18985 12.9193 6.14434 12.9744 6.13161C13.0419 6.1158 13.1133 6.11734 13.1804 6.11194Z" fill="white" style="fill:white;fill-opacity:1;"/>
<path d="M11.5107 6.744C11.569 6.73551 11.628 6.72703 11.6916 6.71777C11.94 7.20914 12.1841 7.6951 12.4314 8.17913C12.5444 8.40013 12.6655 8.61688 12.7808 8.83672C12.8502 8.9694 12.8483 8.97056 12.8221 9.14913H12.6254C12.3943 8.68553 12.1649 8.21847 11.9296 7.75411C11.812 7.52193 11.6824 7.29591 11.5593 7.06605C11.5069 6.96808 11.4629 6.8678 11.5107 6.744Z" fill="white" style="fill:white;fill-opacity:1;"/>
<path d="M9.06467 23.1333C8.87684 23.0122 8.86874 22.9582 8.99871 22.8282C9.50512 22.3226 10.0111 21.817 10.5175 21.3117C10.5823 21.2469 10.6471 21.1821 10.7142 21.1196C10.7702 21.068 10.8558 21.0745 10.909 21.1285C10.9715 21.1918 10.9537 21.2458 10.8974 21.3021C10.6992 21.5015 10.5029 21.7032 10.3043 21.9026C10.0497 22.1583 9.79438 22.4124 9.53829 22.6666C9.38286 22.8209 9.2255 22.974 9.0639 23.1329L9.06467 23.1333Z" fill="white" style="fill:white;fill-opacity:1;"/>
<path d="M19.2138 6.1158C19.2701 6.11117 19.2944 6.10577 19.3183 6.1077C19.4371 6.11657 19.478 6.16594 19.4437 6.27239C19.3199 6.65692 19.193 7.04029 19.0669 7.42404C18.9504 7.77849 18.8335 8.13254 18.7186 8.48737C18.6981 8.55024 18.6854 8.61581 18.6658 8.69333C18.6411 8.6995 18.6067 8.71493 18.5728 8.71531C18.4559 8.71647 18.4112 8.67173 18.434 8.55834C18.4602 8.42836 18.4984 8.29993 18.5389 8.17343C18.621 7.91695 18.7066 7.66201 18.793 7.40707C18.8952 7.10547 19.0013 6.8054 19.102 6.50303C19.1436 6.37768 19.1756 6.24925 19.2138 6.11619V6.1158Z" fill="white" style="fill:white;fill-opacity:1;"/>
<path d="M21.6003 10.6152C21.4256 10.4906 21.4141 10.4505 21.5359 10.3197C21.7114 10.1315 21.8969 9.95334 22.0778 9.77053C22.3489 9.49747 22.6189 9.22324 22.8912 8.95134C23.0038 8.83872 23.1203 8.73034 23.2353 8.62081C23.2954 8.56334 23.3575 8.54444 23.4312 8.60268C23.5064 8.66169 23.5176 8.6991 23.4536 8.76852C23.3621 8.86764 23.2649 8.96137 23.1693 9.05624C22.8824 9.34126 22.5946 9.62551 22.3077 9.91015C22.0736 10.1423 21.8402 10.3753 21.6 10.6148L21.6003 10.6152Z" fill="white" style="fill:white;fill-opacity:1;"/>
<path d="M17.2559 23.2379H17.5C17.5378 23.4936 17.5625 23.7513 17.6172 24.0023C17.6508 24.1558 17.628 24.3171 17.7021 24.4667C17.743 24.5492 17.7368 24.6553 17.7507 24.751C17.775 24.9183 17.797 25.0861 17.8224 25.2531C17.846 25.4089 17.8745 25.5636 17.8973 25.7194C17.9061 25.7788 17.905 25.8394 17.9096 25.9204C17.8321 25.9254 17.768 25.9296 17.711 25.9331C17.6331 25.864 17.6169 25.7869 17.6088 25.6967C17.5929 25.5219 17.5575 25.3492 17.5324 25.1756C17.5081 25.0086 17.5023 24.837 17.4595 24.675C17.3912 24.417 17.4047 24.1489 17.328 23.8901C17.269 23.6907 17.279 23.4709 17.2562 23.2383L17.2559 23.2379Z" fill="white" style="fill:white;fill-opacity:1;"/>
<path d="M23.5102 22.9428C23.4647 22.998 23.4277 23.0523 23.381 23.0971C23.3397 23.1364 23.2973 23.1272 23.2541 23.0836C22.9622 22.7874 22.6686 22.4927 22.374 22.1988C22.114 21.9393 21.8522 21.6816 21.591 21.4228C21.5606 21.3927 21.5282 21.3642 21.5008 21.331C21.4379 21.2554 21.4433 21.1879 21.5135 21.1243C21.5768 21.0668 21.6111 21.0738 21.6929 21.1548C22.2355 21.6944 22.7782 22.2339 23.3216 22.7727C23.3772 22.8279 23.4377 22.8776 23.5098 22.9424L23.5102 22.9428Z" fill="white" style="fill:white;fill-opacity:1;"/>
<path d="M15.1426 8.38636C15.1179 8.39137 15.0882 8.39407 15.0608 8.40333C14.866 8.46774 14.8745 8.46735 14.8572 8.25793C14.8437 8.09748 14.804 7.93897 14.7793 7.77929C14.7542 7.61769 14.7365 7.45532 14.7102 7.2941C14.6828 7.12749 14.6474 6.96241 14.6184 6.79618C14.5945 6.65888 14.5722 6.52081 14.5548 6.38234C14.5301 6.18449 14.5108 5.98625 14.4873 5.77026H14.7395C14.7731 6.02327 14.8032 6.27435 14.8406 6.52428C14.8649 6.68549 14.9019 6.84439 14.9297 7.00484C14.9586 7.17068 14.9825 7.3373 15.0095 7.50353C15.0357 7.66436 15.0643 7.82519 15.089 7.98641C15.1079 8.11021 15.1225 8.23479 15.143 8.38636H15.1426Z" fill="white" style="fill:white;fill-opacity:1;"/>
<path d="M10.9454 10.3926C10.962 10.5141 10.8733 10.5523 10.7764 10.6102C10.7371 10.5704 10.6962 10.5284 10.655 10.4875C10.0942 9.93098 9.53338 9.37444 8.97221 8.8179C8.89893 8.745 8.89238 8.68252 8.95563 8.61888C9.02582 8.54792 9.07403 8.54676 9.15927 8.63084C9.40264 8.87228 9.64253 9.11719 9.88474 9.36017C10.196 9.67257 10.5076 9.98498 10.8208 10.2958C10.8582 10.3333 10.9045 10.3618 10.9458 10.393L10.9454 10.3926Z" fill="white" style="fill:white;fill-opacity:1;"/>
<path d="M17.4929 8.46221C17.4015 8.42749 17.341 8.40435 17.2739 8.3789C17.2665 8.26049 17.2762 8.14633 17.3028 8.0233C17.3606 7.75718 17.3753 7.48218 17.4166 7.2122C17.4401 7.0587 17.4833 6.90828 17.513 6.75555C17.5361 6.63676 17.555 6.51681 17.5701 6.39648C17.5874 6.25763 17.6036 6.11802 17.6113 5.9784C17.6225 5.76936 17.67 5.73272 17.8994 5.779C17.9025 5.80716 17.9114 5.83801 17.9079 5.86694C17.8809 6.08369 17.8559 6.30122 17.8204 6.51643C17.7961 6.66376 17.7521 6.80801 17.7251 6.95495C17.6958 7.11501 17.6761 7.277 17.6511 7.43783C17.6241 7.61062 17.5951 7.78263 17.5685 7.95542C17.5438 8.11509 17.5207 8.27515 17.4929 8.46221Z" fill="white" style="fill:white;fill-opacity:1;"/>
<path d="M16.0938 5.61932C16.1701 5.61585 16.2291 5.61315 16.2862 5.61084C16.3275 5.7601 16.3336 8.13669 16.2947 8.33223H16.0941V5.61932H16.0938Z" fill="white" style="fill:white;fill-opacity:1;"/>
<path d="M16.1009 23.3477H16.2883C16.3253 23.4853 16.335 25.7813 16.2995 26.0162H16.1113C16.0754 25.8808 16.065 23.6045 16.1009 23.3477Z" fill="white" style="fill:white;fill-opacity:1;"/>
<path d="M9.72408 20.498V20.6931C9.45217 20.886 9.17718 21.0777 8.90643 21.2744C8.65458 21.4576 8.40581 21.6454 8.15704 21.8328C8.05252 21.9115 7.96112 21.9219 7.91792 21.8529C7.87241 21.78 7.90481 21.6894 7.99544 21.6223C8.34217 21.3654 8.68659 21.1054 9.03486 20.8509C9.19222 20.736 9.35999 20.6353 9.5162 20.5192C9.57983 20.4722 9.63614 20.4691 9.72331 20.498H9.72408Z" fill="white" style="fill:white;fill-opacity:1;"/>
<path d="M22.8371 20.5276C22.9216 20.575 23.0045 20.6121 23.0763 20.6638C23.5271 20.9897 23.9753 21.319 24.4246 21.6465C24.5326 21.7252 24.548 21.7703 24.4855 21.8459C24.4265 21.9168 24.3436 21.918 24.2607 21.8567C23.8631 21.5636 23.4646 21.272 23.0662 20.9792C23.0022 20.9322 22.9409 20.8805 22.8745 20.8369C22.7083 20.7278 22.7075 20.7293 22.8367 20.5272L22.8371 20.5276Z" fill="white" style="fill:white;fill-opacity:1;"/>
<path d="M9.00398 10.4508C9.03368 10.5341 9.00475 10.6009 8.93572 10.6414C8.87015 10.6799 8.81114 10.6471 8.7529 10.6036C8.52959 10.4358 8.30242 10.2723 8.07718 10.1068C8.03283 10.0744 7.98809 10.042 7.94759 10.0046C7.8936 9.95484 7.88164 9.85225 7.92638 9.80751C7.98038 9.75312 8.03669 9.74888 8.10457 9.79979C8.35256 9.98646 8.6048 10.1677 8.85588 10.3506C8.90448 10.386 8.95539 10.4184 9.00398 10.4512V10.4508Z" fill="white" style="fill:white;fill-opacity:1;"/>
<path d="M23.4305 10.6417C23.4131 10.5834 23.3965 10.526 23.3765 10.4589C23.6113 10.288 23.8416 10.1206 24.0715 9.95246C24.1305 9.90926 24.1852 9.8599 24.2458 9.81901C24.3252 9.76502 24.4143 9.77466 24.478 9.83753C24.5393 9.89808 24.5358 9.9432 24.4629 9.99643C24.1825 10.2005 23.9002 10.401 23.6225 10.6089C23.5604 10.6552 23.5057 10.664 23.4301 10.6417H23.4305Z" fill="white" style="fill:white;fill-opacity:1;"/>
</g>
<defs>
<clipPath id="clip0_144_3021">
<rect width="32" height="32" rx="8" fill="white" style="fill:white;fill-opacity:1;"/>
</clipPath>
</defs>
</svg>
